<svg width="14" height="14" viewBox="0 0 14 14" fill="none" xmlns="http://www.w3.org/2000/svg">
<path d="M11.6667 1.74998H11.0834V1.16665C11.0834 0.845813 10.8209 0.583313 10.5 0.583313C10.1792 0.583313 9.91669 0.845813 9.91669 1.16665V1.74998H4.08335V1.16665C4.08335 0.845813 3.82085 0.583313 3.50002 0.583313C3.17919 0.583313 2.91669 0.845813 2.91669 1.16665V1.74998H2.33335C1.69169 1.74998 1.16669 2.27498 1.16669 2.91665V12.25C1.16669 12.8916 1.69169 13.4166 2.33335 13.4166H11.6667C12.3084 13.4166 12.8334 12.8916 12.8334 12.25V2.91665C12.8334 2.27498 12.3084 1.74998 11.6667 1.74998ZM11.0834 12.25H2.91669C2.59585 12.25 2.33335 11.9875 2.33335 11.6666V4.66665H11.6667V11.6666C11.6667 11.9875 11.4042 12.25 11.0834 12.25Z" fill="#BFBFBF"/>
</svg>
