<svg width="24" height="24" viewBox="0 0 24 24" fill="none" xmlns="http://www.w3.org/2000/svg">
<g clip-path="url(#clip0_61_3090)">
<path d="M22 12.0011C21.9991 10.0896 21.4504 8.21846 20.4189 6.60918C19.3874 4.9999 17.9164 3.71991 16.18 2.9208C14.4436 2.12169 12.5145 1.83692 10.6213 2.10023C8.72801 2.36353 6.94988 3.16387 5.49742 4.40647C4.04496 5.64907 2.97901 7.28189 2.42581 9.11155C1.87261 10.9412 1.85532 12.8911 2.376 14.7303C2.89668 16.5695 3.93353 18.2209 5.36374 19.4891C6.79395 20.7572 8.55763 21.589 10.4459 21.8858V14.8896H7.88907V12.0011H10.4459V9.8045C10.4459 7.29818 11.9308 5.90774 14.2153 5.90774C14.9631 5.92169 15.7086 5.99514 16.4448 6.1274V8.57221H15.1928C13.9517 8.57221 13.5541 9.3498 13.5541 10.1406V12.0165H16.3306L15.8913 14.905H13.5563V21.8946C15.9107 21.5234 18.0552 20.3236 19.6033 18.5113C21.1514 16.699 22.0013 14.3934 22 12.0099" fill="#1877F2"/>
</g>
<defs>
<clipPath id="clip0_61_3090">
<rect width="20" height="19.8792" fill="white" transform="translate(2 2)"/>
</clipPath>
</defs>
</svg>
