<svg width="24" height="24" viewBox="0 0 24 24" fill="none" xmlns="http://www.w3.org/2000/svg">
<path d="M8.0619 21.9834C6.87132 21.9834 5.67639 22.0247 4.48581 21.9788C3.07719 21.9192 2 20.6771 2 19.1966C2 14.416 2.00872 9.63536 2 4.85015C2 3.21383 3.21674 2.07253 4.61665 2.03128C6.08197 1.99003 7.55165 2.02211 9.02134 2.02211C9.0475 2.02211 9.08239 2.00836 9.09547 2.0542C9.08675 2.1367 9.00825 2.14587 8.96028 2.17795C8.09679 2.70964 7.30743 3.34675 6.64455 4.13512C5.54992 5.43685 4.79109 6.93108 4.53379 8.66824C4.08023 11.7346 4.9917 14.3381 7.05449 16.5107C7.42082 16.9003 7.46879 17.2028 7.1766 17.7253C6.82335 18.3532 6.28694 18.7795 5.71564 19.1691C5.65458 19.2058 5.59353 19.2516 5.53247 19.2929C5.44089 19.3754 5.49758 19.4166 5.57608 19.4533C5.59353 19.4945 5.61533 19.5312 5.6415 19.5679C6.14302 20.0354 6.61838 20.535 7.11118 21.0117C7.34232 21.2363 7.57346 21.4701 7.79587 21.7038C7.88745 21.7909 8.04009 21.8184 8.0619 21.9834Z" fill="#0172B1"/>
<path d="M8.06205 21.9818C8.04024 21.8214 7.88761 21.7939 7.79602 21.6976C7.57361 21.4593 7.34247 21.2301 7.11133 21.0055C6.61853 20.5288 6.14317 20.0292 5.64165 19.5617C5.61548 19.525 5.59368 19.4884 5.57623 19.4471C6.68831 19.6763 7.77422 19.5204 8.84268 19.1767C9.20465 19.0621 9.56662 18.9475 9.93295 18.8512C10.1815 18.7825 10.4432 18.7962 10.6831 18.8879C13.448 19.8871 16.178 19.7955 18.8644 18.5579C19.9591 18.0491 20.9578 17.3341 21.8038 16.4403C21.8474 16.3945 21.878 16.3257 21.9565 16.3211C21.9957 16.3853 21.9739 16.4541 21.9739 16.5228V19.2042C21.9826 20.7351 20.8139 21.9818 19.3572 21.9956H19.3354C17.7655 22.0047 16.1955 21.9956 14.6255 21.9956H8.32371C8.23649 21.9864 8.14927 21.9818 8.06205 21.9818Z" fill="#0172B1"/>
<path d="M8.74226 11.7253C9.40079 11.7253 10.0201 11.7207 10.635 11.7253C10.9795 11.7299 11.167 11.8811 11.2019 12.1699C11.2412 12.532 11.0406 12.7749 10.6655 12.7795C9.959 12.7887 9.25687 12.7841 8.55037 12.7841C8.3454 12.7841 8.14479 12.7933 7.93982 12.7795C7.68688 12.7658 7.4383 12.7108 7.31619 12.4357C7.19408 12.1607 7.2813 11.9132 7.44702 11.6886C8.11863 10.7903 8.79459 9.8873 9.47056 8.98893C9.50981 8.93393 9.54906 8.87893 9.58831 8.82851C9.5447 8.75059 9.48365 8.78725 9.43131 8.78267C8.96032 8.77809 8.48496 8.78267 8.01396 8.77809C7.90493 8.77809 7.79591 8.76434 7.69124 8.74142C7.44266 8.68183 7.29002 8.42057 7.34672 8.16389C7.38597 7.98972 7.5168 7.84763 7.68252 7.80638C7.78719 7.77888 7.89621 7.76513 8.00524 7.76513C8.78151 7.76054 9.56214 7.76054 10.3384 7.76513C10.478 7.76054 10.6132 7.77888 10.7484 7.81554C11.0449 7.92097 11.1714 8.20973 11.0536 8.51224C10.949 8.7735 10.7832 8.9981 10.6175 9.22269C10.0462 9.98814 9.47492 10.749 8.90362 11.5053C8.85565 11.5649 8.81204 11.6245 8.74226 11.7253Z" fill="#0172B1"/>
<path d="M13.8011 9.3138C13.9058 9.17171 14.0148 9.03879 14.1936 9.00212C14.5381 8.92878 14.8609 9.16254 14.8652 9.52923C14.8783 10.4459 14.874 11.3626 14.8652 12.2793C14.8652 12.5177 14.717 12.7285 14.5033 12.7973C14.2852 12.8844 14.0366 12.8156 13.8927 12.6185C13.8186 12.5223 13.788 12.5039 13.6834 12.591C13.2865 12.9302 12.8373 12.9898 12.3532 12.8248C11.577 12.5589 11.2586 11.9218 11.1714 11.1472C11.0798 10.3084 11.3458 9.5934 12.0611 9.15338C12.6542 8.78211 13.256 8.81419 13.8011 9.3138ZM12.2573 10.9868C12.266 11.1885 12.3271 11.381 12.4405 11.5414C12.676 11.8714 13.1252 11.9402 13.4435 11.6927C13.4958 11.6514 13.5438 11.601 13.5874 11.5414C13.8317 11.193 13.8317 10.6201 13.5874 10.2718C13.4653 10.093 13.2734 9.98758 13.0685 9.983C12.5887 9.95091 12.2529 10.3405 12.2573 10.9868ZM16.8234 11.0143C16.7885 9.83632 17.5255 8.95628 18.5721 8.9242C19.6842 8.88753 20.4954 9.67132 20.5303 10.8172C20.5652 11.9768 19.8892 12.7973 18.8469 12.9073C17.7087 13.0265 16.8059 12.1602 16.8234 11.0143ZM17.918 10.9043C17.9093 11.1335 17.9747 11.3581 18.1055 11.546C18.3454 11.876 18.7946 11.9402 19.1086 11.6835C19.1565 11.6468 19.1958 11.601 19.235 11.5551C19.488 11.2068 19.488 10.6201 19.2394 10.2718C19.1173 10.0976 18.9254 9.98758 18.7204 9.983C18.2494 9.95549 17.918 10.3313 17.918 10.9043ZM16.4396 10.1022C16.4396 10.8126 16.4439 11.5231 16.4396 12.2335C16.4439 12.5589 16.1997 12.8294 15.8901 12.8385C15.8377 12.8385 15.7811 12.834 15.7287 12.8202C15.5107 12.7606 15.3449 12.5177 15.3449 12.2289V8.58502C15.3449 8.36959 15.3406 8.15875 15.3449 7.94332C15.3493 7.59039 15.563 7.36121 15.8857 7.36121C16.2172 7.35663 16.4396 7.58581 16.4396 7.95249C16.4439 8.66752 16.4396 9.38714 16.4396 10.1022Z" fill="#0172B1"/>
<path d="M4.85661 2.28418H19.1653C20.5813 2.28418 21.75 3.49419 21.75 5.01348V18.9016C21.75 20.4209 20.5813 21.6309 19.1653 21.6309H4.85661C3.44063 21.6309 2.27191 20.4209 2.27191 18.9016V5.01348C2.27191 3.49419 3.44063 2.28418 4.85661 2.28418Z" stroke="#0172B1" stroke-width="0.5" stroke-miterlimit="10"/>
</svg>
