<svg width="155" height="100" viewBox="0 0 155 100" fill="none" xmlns="http://www.w3.org/2000/svg">
<path fill-rule="evenodd" clip-rule="evenodd" d="M62.9853 7.47238C62.7229 7.67086 59.5187 10.2189 58.7094 10.8626H67.2777C66.4684 10.2189 63.2259 7.64404 62.9744 7.47238H62.9853ZM45.5754 24.8954C47.9594 29.1493 56.6097 44.6197 57.3369 45.8964V36.9596L54.7615 32.5019L45.5754 24.8954ZM52.1369 19.0967H73.5822L75.8459 20.8293C76.2615 20.4914 76.6825 20.1642 77.0872 19.853C74.8563 17.938 72.6472 16.0552 72.5871 15.9854H53.0118C52.9462 16.0552 50.9231 17.879 48.8726 19.7404C49.31 20.0891 49.7638 20.4538 50.2341 20.8132L52.1369 19.0967ZM44.6732 47.4252V35.3932L49.6928 44.4212L44.6732 47.4252ZM77.6394 33.9342V38.762L68.6447 45.9125V50.4292C69.3828 49.8498 81.1827 40.4785 81.3576 40.3444V31.0106L77.634 33.9502" fill="#5C9833"/>
<path fill-rule="evenodd" clip-rule="evenodd" d="M57.8235 46.819C57.8197 46.8707 57.7991 46.9197 57.7647 46.959C57.7303 46.9983 57.6839 47.0256 57.6324 47.0371C57.5809 47.0485 57.5271 47.0434 57.4788 47.0225C57.4305 47.0015 57.3903 46.966 57.3642 46.9209L44.5747 24.0532L44.3505 23.8708L39.2653 19.6653V43.2303C39.4239 43.3484 43.5358 46.6474 44.1865 47.1623V34.4652C44.186 34.4125 44.2035 34.3612 44.2362 34.3194C44.2689 34.2776 44.3149 34.2477 44.3669 34.2345C44.4179 34.232 44.4688 34.2414 44.5153 34.2619C44.5619 34.2824 44.6029 34.3135 44.6349 34.3526C44.6349 34.3526 57.6321 57.7621 57.6595 57.8211C57.6868 57.8801 61.9846 61.222 62.6517 61.7691C62.6517 60.8304 62.7283 39.3037 62.7283 39.0838L57.8071 34.9962L57.8235 46.819ZM84.95 20.5665L79.5915 24.9866C72.7073 30.678 63.1876 38.5152 62.9962 38.6815L57.736 34.3204C53.9085 31.1716 48.7741 26.9177 44.9192 23.7153L39.4512 19.2147C39.834 18.8982 43.1694 16.2536 43.4428 16.0551C43.7381 16.2697 62.8212 31.429 62.8212 31.429C62.8612 31.468 62.9153 31.4899 62.9716 31.4899C63.028 31.4899 63.082 31.468 63.122 31.429C63.122 31.429 82.3254 16.318 82.6152 16.0766C82.8886 16.2751 86.1967 18.9143 86.5795 19.22C86.5084 19.2898 85.9179 19.7565 84.9391 20.5665H84.95ZM85.2672 20.9259C85.2672 20.9259 80.1547 25.1314 74.8781 29.5086L63.2313 39.1213V61.7745C63.9968 61.1791 86.5904 43.166 86.7435 43.0319V19.735L85.2398 20.9259H85.2672ZM81.8169 40.4356V30.5118C81.8158 30.4638 81.8 30.4172 81.7718 30.3781C81.7436 30.3389 81.704 30.3089 81.6583 30.2918C81.6218 30.2684 81.5778 30.2587 81.5346 30.2646C81.4914 30.2705 81.4518 30.2916 81.4232 30.324L68.2618 40.7521C68.2341 40.774 68.2119 40.8018 68.1967 40.8334C68.1816 40.865 68.1739 40.8995 68.1744 40.9345V50.9119C68.1745 50.9546 68.1875 50.9963 68.2119 51.0316C68.2362 51.067 68.2708 51.0944 68.3111 51.1104C68.3512 51.1275 68.3953 51.1335 68.4387 51.1278C68.482 51.1222 68.523 51.105 68.5571 51.0782L81.7458 40.6233C81.7757 40.6014 81.8 40.5731 81.8171 40.5406C81.8341 40.508 81.8434 40.4722 81.8443 40.4356H81.8169ZM52.7493 15.5724C52.7955 15.5356 52.8538 15.5165 52.9133 15.5187H72.6581C72.7187 15.52 72.7776 15.5387 72.8276 15.5724C72.8276 15.5724 75.1733 17.5947 77.4535 19.5473C79.8047 17.7127 81.6638 16.2429 82.2707 15.7601C78.9572 13.1477 74.971 9.97211 74.971 9.97211C74.971 9.97211 63.2368 0.713447 62.9853 0.504242C62.8049 0.649076 50.5894 10.3798 43.8475 15.7387C44.4599 16.2268 46.2534 17.6483 48.5171 19.4561C50.6386 17.5249 52.7657 15.5724 52.7657 15.5724H52.7493ZM57.9055 10.9055L62.8267 7.00032C62.8679 6.96376 62.9215 6.94351 62.9771 6.94351C63.0327 6.94351 63.0862 6.96376 63.1274 7.00032L68.1088 10.9055C68.1465 10.937 68.1739 10.9788 68.1875 11.0256C68.2011 11.0723 68.2004 11.122 68.1853 11.1683C68.1702 11.215 68.1403 11.2558 68.1 11.2847C68.0597 11.3137 68.0111 11.3293 67.9611 11.3293H58.0368C57.9889 11.3263 57.9431 11.3094 57.9051 11.2808C57.8671 11.2521 57.8387 11.213 57.8235 11.1683C57.8072 11.123 57.8047 11.074 57.8163 11.0273C57.828 10.9806 57.8533 10.9383 57.8892 10.9055" fill="#95C11F"/>
<path fill-rule="evenodd" clip-rule="evenodd" d="M58.0368 11.3239H67.9612C68.0093 11.3259 68.0568 11.3129 68.0971 11.287C68.1373 11.261 68.1682 11.2232 68.1853 11.1791C68.2028 11.1313 68.2048 11.0794 68.1911 11.0304C68.1774 10.9814 68.1487 10.9378 68.1088 10.9055L63.1275 7.00032C63.0863 6.96375 63.0327 6.94351 62.9771 6.94351C62.9216 6.94351 62.868 6.96375 62.8268 7.00032L57.9056 10.9055C57.8695 10.9404 57.8438 10.9844 57.8313 11.0326C57.8188 11.0808 57.8199 11.1314 57.8345 11.1791C57.8532 11.2211 57.8837 11.257 57.9224 11.2827C57.9612 11.3083 58.0065 11.3226 58.0532 11.3239H58.0368ZM62.9744 7.48309C63.2259 7.67084 66.4684 10.2189 67.2722 10.8679H58.7203C59.5186 10.2189 62.7229 7.64939 62.9853 7.48309H62.9744ZM87.1099 19.0484C87.1521 19.0639 87.1884 19.0917 87.2139 19.1282C87.2393 19.1647 87.2527 19.208 87.2521 19.2522V42.9085C87.2521 42.9085 87.2193 43.2625 87.1591 43.3001L63.1384 62.445C63.1113 62.4914 63.0689 62.5273 63.0182 62.5469C62.9785 62.5716 62.9316 62.5824 62.8849 62.5775C62.8382 62.5726 62.7946 62.5524 62.7611 62.5201L57.3424 58.1644C57.3424 58.1322 57.3096 58.1054 57.2932 58.1C57.2768 58.0946 45.5371 36.8898 44.6896 35.3771V47.6344C44.6917 47.6788 44.6797 47.7229 44.6552 47.7604C44.6308 47.7979 44.595 47.8269 44.5529 47.8436C44.5158 47.8683 44.472 47.8814 44.4271 47.8814C44.3823 47.8814 44.3385 47.8683 44.3014 47.8436L38.8936 43.5522C38.865 43.5295 38.8419 43.5009 38.8259 43.4684C38.8098 43.436 38.8012 43.4005 38.8006 43.3644V19.0913L62.8596 0.0482771C62.9072 0.0142621 62.9647 -0.00405884 63.0236 -0.00405884C63.0825 -0.00405884 63.14 0.0142621 63.1877 0.0482771L87.1099 19.0484ZM62.9853 0.509593L74.9711 9.97211C74.9711 9.97211 78.9572 13.1424 82.2708 15.7547C81.6529 16.2429 79.8047 17.7073 77.4535 19.5419L72.8222 15.5724C72.7782 15.5383 72.7249 15.5178 72.6691 15.5133H52.9134C52.8532 15.5127 52.7948 15.5337 52.7493 15.5724C52.7493 15.5724 50.6223 17.5196 48.5007 19.4507C46.237 17.643 44.4435 16.2322 43.8311 15.7387C50.5895 10.3744 62.8049 0.649074 62.9689 0.50424L62.9853 0.509593ZM77.0653 19.853C74.8344 17.9273 72.6253 16.0498 72.5652 15.9801H53.0118L48.8726 19.735L62.9853 30.9302C63.1767 30.7692 71.3896 24.3107 77.0817 19.8369L77.0653 19.853ZM62.6299 39.0033L57.8181 35.0016V46.8029C57.8181 46.8543 57.8002 46.9041 57.7674 46.944C57.7346 46.984 57.6888 47.0119 57.6377 47.0229C57.5852 47.0373 57.5293 47.0334 57.4794 47.0119C57.4296 46.9904 57.3889 46.9525 57.3643 46.9048L44.5747 24.0371L44.3506 23.8547L39.2654 19.6492V43.2303C39.424 43.343 43.5359 46.642 44.1865 47.157V34.4652C44.1866 34.4134 44.2037 34.363 44.2352 34.3215C44.2667 34.28 44.311 34.2495 44.3615 34.2345C44.4134 34.2311 44.4654 34.2401 44.513 34.2606C44.5606 34.2812 44.6024 34.3127 44.6349 34.3525L57.6595 57.8211C57.7361 57.8854 61.9792 61.2166 62.6518 61.7691L62.6299 39.0033ZM45.5754 24.8954C47.9594 29.1546 56.6097 44.6089 57.337 45.8964V34.6047L45.5754 24.8954ZM62.9853 38.6761C63.1822 38.5152 72.6909 30.678 79.5806 24.9866L84.9391 20.5718C85.907 19.7672 86.4975 19.2898 86.5795 19.22C86.1968 18.9196 82.8887 16.2858 82.6153 16.0766C82.3255 16.318 63.122 31.4237 63.122 31.4237C63.1031 31.4443 63.0799 31.4609 63.054 31.4722C63.0281 31.4835 63 31.4894 62.9717 31.4894C62.9433 31.4894 62.9153 31.4835 62.8894 31.4722C62.8635 31.4609 62.8403 31.4443 62.8213 31.4237C62.8213 31.4237 43.7381 16.2697 43.4429 16.0551C43.1695 16.2536 39.834 18.8982 39.4513 19.2147L44.9192 23.7206C48.7468 26.9392 53.9195 31.1769 57.7361 34.3311L62.9853 38.6761ZM86.76 43.0158V19.7457C86.2679 20.1266 85.2563 20.9312 85.2563 20.9312C85.2563 20.9312 80.1438 25.1261 74.8672 29.514L63.2205 39.1321V61.7798C63.986 61.1844 86.5795 43.1713 86.7326 43.0372L86.76 43.0158ZM81.6475 30.3133C81.6081 30.2928 81.5633 30.2848 81.5191 30.2906C81.475 30.2964 81.4338 30.3156 81.4014 30.3455L68.2236 40.7789C68.1946 40.7984 68.1713 40.825 68.156 40.856C68.1406 40.8871 68.1338 40.9215 68.1361 40.9559V50.928C68.1335 50.9719 68.1453 51.0155 68.17 51.0522C68.1946 51.089 68.2307 51.1169 68.2728 51.1319C68.3127 51.1502 68.3571 51.1569 68.4007 51.1512C68.4443 51.1455 68.4853 51.1276 68.5189 51.0997L81.7076 40.6448C81.7374 40.6228 81.7618 40.5946 81.7788 40.562C81.7959 40.5295 81.8052 40.4936 81.806 40.457V30.5332C81.8049 30.4852 81.7891 30.4387 81.7609 30.3995C81.7326 30.3603 81.6932 30.3303 81.6475 30.3133ZM81.3194 40.3498V31.016L68.6447 41.031V50.4131C69.3828 49.8337 81.1827 40.4624 81.3576 40.3283" fill="white"/>
<path fill-rule="evenodd" clip-rule="evenodd" d="M31.3642 24.5735V49.9625H24.5511L4.16111 27.776V49.9625H0V24.5735H6.76932L27.2031 46.878V24.5735H31.3642Z" fill="white"/>
<path fill-rule="evenodd" clip-rule="evenodd" d="M120.131 24.5789H124.505L111.743 49.9625H105.931L93.0535 24.5789H97.3787L106.98 42.9514L107.926 44.9201C108.287 45.6818 108.577 46.3309 108.807 46.878H108.905C109.452 45.6228 109.999 44.3407 110.671 43.0104L120.131 24.5789Z" fill="white"/>
<path fill-rule="evenodd" clip-rule="evenodd" d="M147.941 44.5982H129.744L127.01 49.9625H122.712L135.889 24.5735H141.587L155.022 49.9625H150.773L147.941 44.5982ZM146.771 41.6533L138.782 26.9284L130.908 41.6533H146.771Z" fill="white"/>
<path d="M155 61.7906H0V62.6327H155V61.7906Z" fill="white"/>
<path d="M22.2983 92.8602C22.2983 98.5517 20.1658 100 12.1935 100H11.1929C1.5693 100 0 98.777 0 92.8978V91.8571H3.39561V92.7529C3.39561 96.6903 4.48919 97.5486 10.9742 97.5486H11.7998C17.5959 97.5486 18.7277 96.8029 18.7277 92.9729V92.4364C18.7277 89.3145 17.9841 88.5688 10.6242 88.0861C2.08877 87.5496 0.306204 86.0423 0.306204 81.4291V80.8336C0.306204 75.9253 2.35122 74.2571 10.1485 74.2571H11.0179C19.9471 74.2571 21.5984 75.7805 21.5984 81.2306V82.0459H18.1591V81.37C18.1591 77.6151 17.1584 76.6871 11.1929 76.6871H10.4547C4.92115 76.6871 3.83304 77.4702 3.83304 80.8873V81.4237C3.83304 84.2506 4.74619 85.0338 11.7998 85.5166C20.5978 86.112 22.2983 87.5604 22.2983 92.2863V92.8602Z" fill="white"/>
<path d="M45.1981 99.7747H25.9017V74.4931H45.0668V76.9446H29.516V85.5005H44.1974V87.8769H29.516V97.2857H45.1981V99.7747Z" fill="white"/>
<path d="M70.4436 99.7801H66.8293V96.3362C66.8293 90.5375 66.2169 89.8294 60.5138 89.8294H51.9674V99.7586H48.3968V74.4931H61.0223C68.7759 74.4931 70.4327 76.0165 70.4327 81.4666V82.3249C70.4327 86.4875 69.1258 87.9037 66.2934 88.3864V88.4615C69.5742 88.998 70.4327 90.28 70.4327 95.2258L70.4436 99.7801ZM61.6949 87.4423C65.6591 87.4423 66.8347 86.3266 66.8347 82.7969V81.8528C66.8347 77.7224 65.8341 76.9445 60.3005 76.9445H51.9674V87.4316L61.6949 87.4423Z" fill="white"/>
<path d="M87.602 99.7747H82.7246L72.2698 74.4931H76.0591L85.1633 97.2481H85.2945L94.3057 74.4931H98.0075L87.602 99.7747Z" fill="white"/>
<path d="M104.443 74.4931H100.829V99.7801H104.443V74.4931Z" fill="white"/>
<path d="M120.147 100C110.261 100 108.298 97.8543 108.298 88.1987V86.0798C108.298 76.4242 110.518 74.2785 120.103 74.2785H120.864C129.53 74.2785 131.838 75.8878 131.838 81.488V82.2712H128.398V81.6758C128.398 77.7706 127.092 76.7675 120.864 76.7675H120.169C113.241 76.7675 111.891 77.9208 111.891 86.0637V88.145C111.891 96.363 113.197 97.4413 120.251 97.4413H120.907C127.267 97.4413 128.562 96.5508 128.562 92.4579V91.9215H132.045V92.7422C132.045 98.5034 129.476 100.027 120.94 100.027L120.147 100Z" fill="white"/>
<path d="M154.995 99.7747H135.704V74.4931H154.869V76.9446H139.318V85.5005H153.994V87.8769H139.318V97.2857H154.995V99.7747Z" fill="white"/>
</svg>
