<svg width="148" height="99" viewBox="0 0 148 99" fill="none" xmlns="http://www.w3.org/2000/svg">
<g clip-path="url(#clip0_20_7065)">
<path fill-rule="evenodd" clip-rule="evenodd" d="M60.1408 8.0366C59.8902 8.22978 56.8307 10.7098 56.058 11.3363H64.2393C63.4666 10.7098 60.3705 8.20367 60.1304 8.0366H60.1408ZM43.5171 24.9945C45.7935 29.1347 54.0531 44.1921 54.7475 45.4347V36.7365L52.2884 32.3978L43.5171 24.9945ZM49.7823 19.3505H70.2592L72.4206 21.0369C72.8174 20.708 73.2195 20.3895 73.6058 20.0867C71.4756 18.2228 69.3664 16.3902 69.3089 16.3223H50.6177C50.555 16.3902 48.6233 18.1654 46.6654 19.9771C47.0831 20.3164 47.5164 20.6714 47.9654 21.0213L49.7823 19.3505ZM42.6556 46.9227V35.212L47.4486 43.9989L42.6556 46.9227ZM74.1331 33.7919V38.4908L65.5446 45.4504V49.8465C66.2494 49.2826 77.5163 40.1615 77.6834 40.031V30.9464L74.1279 33.8075" fill="#5C9833"/>
<path fill-rule="evenodd" clip-rule="evenodd" d="M55.2122 46.3327C55.2085 46.383 55.1888 46.4308 55.156 46.469C55.1231 46.5072 55.0788 46.5338 55.0297 46.5449C54.9805 46.5561 54.9291 46.5511 54.883 46.5307C54.8369 46.5104 54.7985 46.4757 54.7736 46.4319L42.5616 24.1748L42.3476 23.9972L37.4921 19.904V42.8399C37.6435 42.9547 41.5697 46.1656 42.191 46.6669V34.3087C42.1905 34.2575 42.2072 34.2075 42.2384 34.1668C42.2696 34.1261 42.3136 34.0971 42.3632 34.0842C42.4119 34.0818 42.4605 34.0909 42.505 34.1109C42.5495 34.1308 42.5886 34.1611 42.6191 34.1991C42.6191 34.1991 55.0294 56.9836 55.0555 57.041C55.0816 57.0985 59.1853 60.3511 59.8223 60.8837C59.8223 59.97 59.8954 39.0181 59.8954 38.804L55.1965 34.8256L55.2122 46.3327ZM81.1136 20.7811L75.997 25.0832C69.4238 30.6227 60.334 38.2506 60.1512 38.4124L55.1286 34.1678C51.4739 31.103 46.5714 26.9628 42.8906 23.8458L37.6696 19.4654C38.035 19.1574 41.2198 16.5834 41.4809 16.3902C41.7628 16.5991 59.9842 31.3536 59.9842 31.3536C60.0223 31.3916 60.0739 31.4129 60.1278 31.4129C60.1816 31.4129 60.2332 31.3916 60.2713 31.3536C60.2713 31.3536 78.6075 16.6461 78.8842 16.4111C79.1453 16.6043 82.304 19.173 82.6695 19.4706C82.6016 19.5385 82.0377 19.9927 81.1032 20.7811H81.1136ZM81.4164 21.1309C81.4164 21.1309 76.5348 25.2242 71.4965 29.4845L60.3757 38.8406V60.8889C61.1067 60.3094 82.6799 42.7772 82.8261 42.6467V19.9718L81.3903 21.1309H81.4164ZM78.122 40.1197V30.4609C78.1209 30.4142 78.1059 30.3689 78.0789 30.3307C78.0519 30.2926 78.0142 30.2634 77.9706 30.2468C77.9357 30.224 77.8937 30.2146 77.8524 30.2203C77.8111 30.2261 77.7734 30.2466 77.7461 30.2781L65.1791 40.4278C65.1526 40.4491 65.1314 40.4762 65.1169 40.5069C65.1024 40.5377 65.0951 40.5713 65.0956 40.6053V50.3164C65.0956 50.3579 65.1081 50.3984 65.1313 50.4328C65.1546 50.4673 65.1876 50.494 65.2261 50.5095C65.2644 50.5262 65.3065 50.532 65.3479 50.5265C65.3893 50.521 65.4284 50.5043 65.461 50.4782L78.0541 40.3025C78.0826 40.2811 78.1058 40.2536 78.1221 40.2219C78.1384 40.1902 78.1473 40.1553 78.1481 40.1197H78.122ZM50.3671 15.9203C50.4112 15.8846 50.4669 15.866 50.5237 15.8681H69.3768C69.4347 15.8694 69.4909 15.8876 69.5386 15.9203C69.5386 15.9203 71.7784 17.8887 73.9556 19.7891C76.2006 18.0035 77.9758 16.573 78.5553 16.1031C75.3914 13.5604 71.5853 10.4696 71.5853 10.4696C71.5853 10.4696 60.381 1.45814 60.1408 1.25452C59.9685 1.39548 48.3048 10.8664 41.8673 16.0822C42.452 16.5573 44.1645 17.9409 46.326 19.7003C48.3518 17.8208 50.3827 15.9203 50.3827 15.9203H50.3671ZM55.2905 11.378L59.9894 7.57715C60.0287 7.54157 60.0799 7.52186 60.133 7.52186C60.186 7.52186 60.2372 7.54157 60.2765 7.57715L65.0329 11.378C65.0689 11.4087 65.0951 11.4494 65.1081 11.4949C65.1211 11.5404 65.1204 11.5888 65.106 11.6339C65.0916 11.6793 65.063 11.719 65.0246 11.7472C64.9861 11.7754 64.9396 11.7905 64.8919 11.7905H55.4158C55.3701 11.7877 55.3263 11.7712 55.29 11.7433C55.2538 11.7154 55.2267 11.6773 55.2122 11.6339C55.1966 11.5898 55.1942 11.5421 55.2053 11.4966C55.2164 11.4512 55.2406 11.41 55.2748 11.378" fill="#95C11F"/>
<path fill-rule="evenodd" clip-rule="evenodd" d="M55.4158 11.7853H64.892C64.9379 11.7872 64.9833 11.7746 65.0217 11.7493C65.0602 11.724 65.0896 11.6873 65.106 11.6443C65.1227 11.5978 65.1247 11.5473 65.1116 11.4996C65.0985 11.452 65.0711 11.4095 65.033 11.378L60.2766 7.57715C60.2372 7.54156 60.1861 7.52186 60.133 7.52186C60.08 7.52186 60.0288 7.54156 59.9895 7.57715L55.2905 11.378C55.2561 11.4121 55.2316 11.4548 55.2196 11.5017C55.2076 11.5487 55.2087 11.598 55.2227 11.6443C55.2405 11.6852 55.2696 11.7202 55.3066 11.7452C55.3436 11.7701 55.3869 11.784 55.4315 11.7853H55.4158ZM60.1304 8.04704C60.3706 8.22977 63.4666 10.7098 64.2341 11.3415H56.0685C56.8307 10.7098 59.8903 8.20889 60.1409 8.04704H60.1304ZM83.176 19.3035C83.2163 19.3186 83.2509 19.3457 83.2752 19.3813C83.2995 19.4168 83.3123 19.4589 83.3117 19.5019V42.5266C83.3117 42.5266 83.2804 42.8712 83.2229 42.9077L60.2871 61.5415C60.2611 61.5866 60.2206 61.6216 60.1722 61.6407C60.1344 61.6647 60.0895 61.6752 60.045 61.6705C60.0004 61.6657 59.9587 61.646 59.9268 61.6146L54.7528 57.3751C54.7528 57.3438 54.7215 57.3177 54.7058 57.3125C54.6901 57.3073 43.4806 36.6686 42.6714 35.1963V47.1263C42.6734 47.1696 42.662 47.2125 42.6386 47.2489C42.6152 47.2854 42.581 47.3137 42.5409 47.3299C42.5054 47.3539 42.4636 47.3668 42.4208 47.3668C42.378 47.3668 42.3361 47.3539 42.3007 47.3299L37.1371 43.1531C37.1099 43.131 37.0878 43.1032 37.0725 43.0716C37.0571 43.04 37.0489 43.0055 37.0483 42.9704V19.3453L60.0208 0.810723C60.0663 0.777616 60.1211 0.759785 60.1774 0.759785C60.2337 0.759785 60.2885 0.777616 60.3341 0.810723L83.176 19.3035ZM60.1409 1.25972L71.5853 10.4696C71.5853 10.4696 75.3914 13.5552 78.5554 16.0978C77.9654 16.573 76.2007 17.9983 73.9556 19.7839L69.5335 15.9203C69.4915 15.8872 69.4406 15.8672 69.3873 15.8629H50.5238C50.4663 15.8622 50.4106 15.8827 50.3671 15.9203C50.3671 15.9203 48.3362 17.8156 46.3104 19.6951C44.1489 17.9356 42.4364 16.5625 41.8517 16.0822C48.3048 10.8612 59.9686 1.39548 60.1252 1.25451L60.1409 1.25972ZM73.585 20.0867C71.4548 18.2124 69.3455 16.385 69.2881 16.3171H50.6177L46.6655 19.9718L60.1409 30.8681C60.3236 30.7115 68.1656 24.4254 73.6006 20.071L73.585 20.0867ZM59.8015 38.7257L55.207 34.8308V46.3171C55.207 46.367 55.1899 46.4155 55.1586 46.4544C55.1272 46.4933 55.0835 46.5204 55.0347 46.5311C54.9846 46.5452 54.9312 46.5414 54.8836 46.5205C54.836 46.4995 54.7971 46.4627 54.7737 46.4163L42.5617 24.1591L42.3477 23.9816L37.4921 19.8883V42.8399C37.6436 42.9495 41.5698 46.1604 42.1911 46.6616V34.3087C42.1911 34.2583 42.2074 34.2093 42.2375 34.1689C42.2676 34.1285 42.3099 34.0988 42.3581 34.0842C42.4077 34.0809 42.4573 34.0896 42.5027 34.1096C42.5482 34.1296 42.5881 34.1603 42.6192 34.1991L55.0556 57.041C55.1287 57.1037 59.1802 60.3459 59.8224 60.8837L59.8015 38.7257ZM43.5172 24.9944C45.7935 29.1399 54.0532 44.1817 54.7476 45.4347V34.4445L43.5172 24.9944ZM60.1409 38.4072C60.3288 38.2506 69.4082 30.6227 75.9866 25.0832L81.1032 20.7863C82.0273 20.0032 82.5912 19.5385 82.6695 19.4706C82.304 19.1782 79.1453 16.6147 78.8843 16.4111C78.6076 16.6461 60.2714 31.3484 60.2714 31.3484C60.2533 31.3685 60.2311 31.3846 60.2064 31.3957C60.1817 31.4067 60.1549 31.4123 60.1278 31.4123C60.1007 31.4123 60.074 31.4067 60.0492 31.3957C60.0245 31.3846 60.0023 31.3685 59.9842 31.3484C59.9842 31.3484 41.7629 16.5991 41.481 16.3902C41.2199 16.5834 38.0351 19.1574 37.6696 19.4654L42.8906 23.851C46.5454 26.9837 51.4844 31.1082 55.1287 34.1782L60.1409 38.4072ZM82.8418 42.631V19.9823C82.3719 20.353 81.406 21.1361 81.406 21.1361C81.406 21.1361 76.5244 25.2189 71.4861 29.4897L60.3654 38.851V60.8941C61.0963 60.3146 82.6695 42.7824 82.8157 42.6519L82.8418 42.631ZM77.9602 30.2677C77.9227 30.2477 77.8798 30.24 77.8377 30.2456C77.7955 30.2512 77.7562 30.2699 77.7252 30.299L65.1426 40.4539C65.1149 40.4728 65.0926 40.4987 65.078 40.5289C65.0633 40.5591 65.0568 40.5927 65.0591 40.6262V50.332C65.0565 50.3747 65.0678 50.4171 65.0913 50.4529C65.1149 50.4887 65.1493 50.5158 65.1896 50.5304C65.2276 50.5483 65.27 50.5548 65.3117 50.5492C65.3533 50.5437 65.3925 50.5263 65.4245 50.4991L78.0176 40.3233C78.0461 40.302 78.0693 40.2744 78.0856 40.2428C78.1019 40.2111 78.1108 40.1762 78.1116 40.1406V30.4817C78.1105 30.435 78.0955 30.3897 78.0685 30.3516C78.0415 30.3135 78.0038 30.2843 77.9602 30.2677V30.2677ZM77.6469 40.0362V30.9516L65.5446 40.6992V49.8308C66.2494 49.2669 77.5164 40.1458 77.6835 40.0153" fill="white"/>
<path fill-rule="evenodd" clip-rule="evenodd" d="M29.9477 24.6812V49.3922H23.4423L3.97319 27.7981V49.3922H0V24.6812H6.46361L25.9745 46.3901V24.6812H29.9477Z" fill="white"/>
<path fill-rule="evenodd" clip-rule="evenodd" d="M114.706 24.6864H118.882L106.697 49.3922H101.147L88.8511 24.6864H92.9809L102.149 42.5684L103.052 44.4845C103.397 45.2259 103.674 45.8576 103.893 46.3901H103.987C104.509 45.1684 105.031 43.9206 105.673 42.6258L114.706 24.6864Z" fill="white"/>
<path fill-rule="evenodd" clip-rule="evenodd" d="M141.26 44.1712H123.884L121.274 49.3922H117.17L129.752 24.6812H135.193L148.021 49.3922H143.964L141.26 44.1712ZM140.142 41.3049L132.514 26.9732L124.996 41.3049H140.142Z" fill="white"/>
<path d="M148 60.9046H0V61.7243H148V60.9046Z" fill="white"/>
<path d="M21.2913 91.1447C21.2913 96.6842 19.2551 98.0938 11.6429 98.0938H10.6874C1.49843 98.0938 0 96.9035 0 91.1812V90.1683H3.24226V91.0402C3.24226 94.8725 4.28645 95.7078 10.4786 95.7078H11.267C16.8012 95.7078 17.882 94.9821 17.882 91.2543V90.7322C17.882 87.6936 17.1719 86.9678 10.1444 86.498C1.99444 85.9759 0.292375 84.5088 0.292375 80.0187V79.4391C0.292375 74.6619 2.24503 73.0382 9.6902 73.0382H10.5203C19.0462 73.0382 20.623 74.521 20.623 79.8255V80.6191H17.339V79.9612C17.339 76.3065 16.3835 75.4033 10.6874 75.4033H9.98257C4.69891 75.4033 3.65993 76.1656 3.65993 79.4914V80.0135C3.65993 82.7649 4.53185 83.5272 11.267 83.9971C19.6676 84.5766 21.2913 85.9863 21.2913 90.586V91.1447Z" fill="white"/>
<path d="M43.1569 97.8745H24.7319V73.2679H43.0316V75.6539H28.183V83.9814H42.2014V86.2943H28.183V95.452H43.1569V97.8745Z" fill="white"/>
<path d="M67.2622 97.8797H63.8112V94.5279C63.8112 88.8839 63.2264 88.1948 57.7809 88.1948H49.6205V97.8589H46.2111V73.2679H58.2664C65.6698 73.2679 67.2518 74.7507 67.2518 80.0552V80.8906C67.2518 84.9421 66.004 86.3204 63.2995 86.7903V86.8634C66.4321 87.3855 67.2518 88.6333 67.2518 93.4471L67.2622 97.8797ZM58.9086 85.8714C62.6939 85.8714 63.8164 84.7855 63.8164 81.35V80.4311C63.8164 76.411 62.8609 75.6539 57.5773 75.6539H49.6205V85.861L58.9086 85.8714Z" fill="white"/>
<path d="M83.6458 97.8745H78.9886L69.006 73.2679H72.6242L81.3172 95.4154H81.4425L90.0467 73.2679H93.5813L83.6458 97.8745Z" fill="white"/>
<path d="M99.7265 73.2679H96.2754V97.8798H99.7265V73.2679Z" fill="white"/>
<path d="M114.721 98.0938C105.282 98.0938 103.407 96.0054 103.407 86.6076V84.5453C103.407 75.1475 105.527 73.0591 114.679 73.0591H115.405C123.68 73.0591 125.884 74.6254 125.884 80.0761V80.8384H122.6V80.2588C122.6 76.4579 121.352 75.4816 115.405 75.4816H114.742C108.127 75.4816 106.837 76.6041 106.837 84.5296V86.5554C106.837 94.554 108.085 95.6034 114.82 95.6034H115.447C121.519 95.6034 122.756 94.7367 122.756 90.7531V90.231H126.082V91.0298C126.082 96.6372 123.628 98.1199 115.478 98.1199L114.721 98.0938Z" fill="white"/>
<path d="M147.995 97.8745H129.575V73.2679H147.875V75.6539H133.026V83.9814H147.039V86.2943H133.026V95.452H147.995V97.8745Z" fill="white"/>
</g>
<defs>
<clipPath id="clip0_20_7065">
<rect width="148" height="97.3301" fill="white" transform="translate(0 0.763733)"/>
</clipPath>
</defs>
</svg>
